<svg width="24" height="24" viewBox="0 0 24 24" fill="none" xmlns="http://www.w3.org/2000/svg">
<path d="M3 5.125C2.51675 5.125 2.125 5.51675 2.125 6C2.125 6.48325 2.51675 6.875 3 6.875H21C21.4832 6.875 21.875 6.48325 21.875 6C21.875 5.51675 21.4832 5.125 21 5.125H3Z" fill="#1D2735"/>
<path d="M6 9.125C5.51675 9.125 5.125 9.51675 5.125 10C5.125 10.4832 5.51675 10.875 6 10.875H18C18.4832 10.875 18.875 10.4832 18.875 10C18.875 9.51675 18.4832 9.125 18 9.125H6Z" fill="#1D2735"/>
<path d="M2.125 14C2.125 13.5168 2.51675 13.125 3 13.125H21C21.4832 13.125 21.875 13.5168 21.875 14C21.875 14.4832 21.4832 14.875 21 14.875H3C2.51675 14.875 2.125 14.4832 2.125 14Z" fill="#1D2735"/>
<path d="M6 17.125C5.51675 17.125 5.125 17.5168 5.125 18C5.125 18.4832 5.51675 18.875 6 18.875H18C18.4832 18.875 18.875 18.4832 18.875 18C18.875 17.5168 18.4832 17.125 18 17.125H6Z" fill="#1D2735"/>
</svg>
