<svg width="24" height="24" viewBox="0 0 24 24" fill="none" xmlns="http://www.w3.org/2000/svg">
<path d="M12.875 6C12.875 5.51675 12.4832 5.125 12 5.125C11.5168 5.125 11.125 5.51675 11.125 6V12C11.125 12.3314 11.3123 12.6344 11.6087 12.7826L15.6087 14.7826C16.0409 14.9987 16.5665 14.8235 16.7826 14.3913C16.9987 13.9591 16.8235 13.4335 16.3913 13.2174L12.875 11.4592V6Z" fill="#1D2735"/>
<path fill-rule="evenodd" clip-rule="evenodd" d="M12 1.125C5.9939 1.125 1.125 5.9939 1.125 12C1.125 18.0061 5.9939 22.875 12 22.875C18.0061 22.875 22.875 18.0061 22.875 12C22.875 5.9939 18.0061 1.125 12 1.125ZM2.875 12C2.875 6.9604 6.9604 2.875 12 2.875C17.0396 2.875 21.125 6.9604 21.125 12C21.125 17.0396 17.0396 21.125 12 21.125C6.9604 21.125 2.875 17.0396 2.875 12Z" fill="#1D2735"/>
</svg>
