<svg width="24" height="24" viewBox="0 0 24 24" fill="none" xmlns="http://www.w3.org/2000/svg">
<path fill-rule="evenodd" clip-rule="evenodd" d="M12 2.875C6.9604 2.875 2.875 6.9604 2.875 12C2.875 17.0396 6.9604 21.125 12 21.125C17.0396 21.125 21.125 17.0396 21.125 12C21.125 6.9604 17.0396 2.875 12 2.875ZM1.125 12C1.125 5.9939 5.9939 1.125 12 1.125C18.0061 1.125 22.875 5.9939 22.875 12C22.875 18.0061 18.0061 22.875 12 22.875C5.9939 22.875 1.125 18.0061 1.125 12Z" fill="#1D2735"/>
<path fill-rule="evenodd" clip-rule="evenodd" d="M1.125 12C1.125 11.5168 1.51675 11.125 2 11.125H22C22.4832 11.125 22.875 11.5168 22.875 12C22.875 12.4832 22.4832 12.875 22 12.875H2C1.51675 12.875 1.125 12.4832 1.125 12Z" fill="#1D2735"/>
<path fill-rule="evenodd" clip-rule="evenodd" d="M8.8752 12C8.94494 15.1563 10.0477 18.1932 12 20.6516C13.9523 18.1932 15.0551 15.1563 15.1248 12C15.0551 8.84367 13.9523 5.80683 12 3.34838C10.0477 5.80683 8.94494 8.84367 8.8752 12ZM12 2L11.3539 1.40988C8.70962 4.30484 7.20685 8.06175 7.12519 11.9818C7.12494 11.9939 7.12494 12.0061 7.12519 12.0182C7.20685 15.9382 8.70962 19.6952 11.3539 22.5901C11.5197 22.7716 11.7542 22.875 12 22.875C12.2458 22.875 12.4803 22.7716 12.6461 22.5901C15.2904 19.6952 16.7931 15.9382 16.8748 12.0182C16.8751 12.0061 16.8751 11.9939 16.8748 11.9818C16.7931 8.06175 15.2904 4.30484 12.6461 1.40988L12 2Z" fill="#1D2735"/>
</svg>
