<svg width="24" height="24" viewBox="0 0 24 24" fill="none" xmlns="http://www.w3.org/2000/svg">
<path fill-rule="evenodd" clip-rule="evenodd" d="M2.125 3C2.125 2.51675 2.51675 2.125 3 2.125H10C10.4832 2.125 10.875 2.51675 10.875 3V10C10.875 10.4832 10.4832 10.875 10 10.875H3C2.51675 10.875 2.125 10.4832 2.125 10V3ZM3.875 3.875V9.125H9.125V3.875H3.875Z" fill="#1D2735"/>
<path fill-rule="evenodd" clip-rule="evenodd" d="M13.125 3C13.125 2.51675 13.5168 2.125 14 2.125H21C21.4832 2.125 21.875 2.51675 21.875 3V10C21.875 10.4832 21.4832 10.875 21 10.875H14C13.5168 10.875 13.125 10.4832 13.125 10V3ZM14.875 3.875V9.125H20.125V3.875H14.875Z" fill="#1D2735"/>
<path fill-rule="evenodd" clip-rule="evenodd" d="M13.125 14C13.125 13.5168 13.5168 13.125 14 13.125H21C21.4832 13.125 21.875 13.5168 21.875 14V21C21.875 21.4832 21.4832 21.875 21 21.875H14C13.5168 21.875 13.125 21.4832 13.125 21V14ZM14.875 14.875V20.125H20.125V14.875H14.875Z" fill="#1D2735"/>
<path fill-rule="evenodd" clip-rule="evenodd" d="M2.125 14C2.125 13.5168 2.51675 13.125 3 13.125H10C10.4832 13.125 10.875 13.5168 10.875 14V21C10.875 21.4832 10.4832 21.875 10 21.875H3C2.51675 21.875 2.125 21.4832 2.125 21V14ZM3.875 14.875V20.125H9.125V14.875H3.875Z" fill="#1D2735"/>
</svg>
