<svg width="24" height="24" viewBox="0 0 24 24" fill="none" xmlns="http://www.w3.org/2000/svg">
<path fill-rule="evenodd" clip-rule="evenodd" d="M4.00008 4.875C3.38332 4.875 2.87508 5.38325 2.87508 6V18C2.87508 18.6168 3.38332 19.125 4.00008 19.125H20.0001C20.6168 19.125 21.1251 18.6168 21.1251 18V6C21.1251 5.38325 20.6168 4.875 20.0001 4.875H4.00008ZM1.12508 6C1.12508 4.41675 2.41683 3.125 4.00008 3.125H20.0001C21.5833 3.125 22.8751 4.41675 22.8751 6V18C22.8751 19.5832 21.5833 20.875 20.0001 20.875H4.00008C2.41683 20.875 1.12508 19.5832 1.12508 18V6Z" fill="#1D2735"/>
<path fill-rule="evenodd" clip-rule="evenodd" d="M1.28325 5.49822C1.56037 5.10233 2.10596 5.00605 2.50185 5.28317L12.0001 11.9319L21.4983 5.28317C21.8942 5.00605 22.4398 5.10233 22.7169 5.49822C22.994 5.89411 22.8977 6.4397 22.5019 6.71683L12.5019 13.7168C12.2006 13.9277 11.7996 13.9277 11.4983 13.7168L1.4983 6.71683C1.1024 6.4397 1.00612 5.89411 1.28325 5.49822Z" fill="#1D2735"/>
</svg>
