<svg width="24" height="24" viewBox="0 0 24 24" fill="none" xmlns="http://www.w3.org/2000/svg">
<path fill-rule="evenodd" clip-rule="evenodd" d="M12 1.125C12.3666 1.125 12.6944 1.35352 12.8211 1.69751L19.8211 20.6975C19.9482 21.0426 19.846 21.4304 19.5653 21.6679C19.2846 21.9055 18.8852 21.9422 18.5659 21.7597L12 18.0078L5.43416 21.7597C5.11486 21.9422 4.71553 21.9055 4.4348 21.6679C4.15407 21.4304 4.05186 21.0426 4.17899 20.6975L11.179 1.69751C11.3057 1.35352 11.6335 1.125 12 1.125ZM6.6515 19.0485L11.5659 16.2403C11.8349 16.0866 12.1652 16.0866 12.4342 16.2403L17.3486 19.0485L12 4.53106L6.6515 19.0485Z" fill="#1D2735"/>
</svg>
