<svg width="24" height="24" viewBox="0 0 24 24" fill="none" xmlns="http://www.w3.org/2000/svg">
<path fill-rule="evenodd" clip-rule="evenodd" d="M13.229 1.913C13.277 1.43215 13.7058 1.08132 14.1867 1.12941C16.3932 1.35006 18.4795 2.34253 20.1183 3.98135C21.646 5.50903 22.7493 7.59298 22.9707 9.91711C23.0165 10.3982 22.6636 10.8253 22.1826 10.8711C21.7015 10.9169 21.2744 10.5641 21.2286 10.083C21.0499 8.20715 20.1532 6.49112 18.8809 5.21879C17.5197 3.85761 15.806 3.05007 14.0125 2.87072C13.5317 2.82264 13.1809 2.39385 13.229 1.913ZM2.77358 3.86129C2.71794 3.88123 2.64908 3.90591 2.57631 3.93017C2.49937 3.95582 2.43392 4.00321 2.21833 4.21879C2.14988 4.28725 2.10608 4.34763 2.0297 4.57677C2.01936 4.60778 2.0073 4.63818 1.99357 4.66783C1.99156 4.67752 1.98725 4.70071 1.98352 4.74177C1.97629 4.82125 1.97489 4.91456 1.97466 5.04366C2.36511 8.01318 3.32473 10.8631 4.93195 13.3212L4.9416 13.3363C6.37118 15.6236 8.37603 17.6285 10.6634 19.0581L10.6784 19.0677C13.161 20.6909 15.9129 21.7342 18.8421 22.025C19.0994 22.0246 19.1756 22.0191 19.3229 21.97C19.5521 21.8936 19.6124 21.8498 19.6809 21.7813C19.8965 21.5658 19.9439 21.5003 19.9695 21.4234C19.9826 21.3841 19.9985 21.3458 20.017 21.3088C20.0424 21.2579 20.0713 21.1868 20.0929 21.1073C20.1148 21.0272 20.1246 20.9559 20.1246 20.9001V17.9001C20.1246 17.6656 20.0467 17.4512 19.7757 16.9945C19.6468 16.8363 19.4738 16.732 19.1612 16.665C18.1732 16.5495 17.1142 16.2273 16.2229 15.9302C16.1491 15.9056 16.079 15.8713 16.0142 15.8281C16.0142 15.8281 16.0134 15.8275 16.0113 15.8266C16.0092 15.8256 16.0053 15.8239 15.999 15.822C15.9863 15.8181 15.9638 15.813 15.9289 15.8106C15.8558 15.8058 15.7497 15.8145 15.6118 15.8489C15.5424 15.8663 15.4711 15.8751 15.3996 15.8751C15.3566 15.8751 15.3231 15.8831 15.2769 15.908C15.2195 15.9389 15.1383 15.9988 15.0183 16.1188L13.7183 17.4188C13.4413 17.6958 13.0139 17.7549 12.6721 17.5635C10.0313 16.0847 7.81502 13.8684 6.33617 11.2276C6.14475 10.8858 6.20387 10.4584 6.48089 10.1814L7.71904 8.94319C7.89589 8.67544 7.99694 8.50299 8.05073 8.28785C8.08522 8.14987 8.06994 8.0888 7.96187 7.65679C7.96089 7.65286 7.9599 7.64891 7.9589 7.64493L7.95802 7.64229C7.67114 6.78177 7.35255 5.82615 7.23624 4.75693C7.19922 4.62174 7.15051 4.48854 7.08879 4.37197C7.0185 4.2392 6.94436 4.15238 6.8746 4.10006C6.84148 4.07522 6.81016 4.04805 6.78088 4.01878C6.66393 3.90183 6.3958 3.77506 6.09961 3.77506H3.09961C3.05617 3.77506 3.01788 3.78061 2.95106 3.80066C2.91201 3.81237 2.86796 3.82755 2.80329 3.85065C2.79389 3.85401 2.78396 3.85757 2.77358 3.86129ZM2.12724 2.23259C2.33865 2.15477 2.69102 2.02506 3.09961 2.02506H6.09961C6.78202 2.02506 7.49078 2.28192 7.97356 2.73785C8.58322 3.22199 8.8366 3.94032 8.94849 4.38785C8.95877 4.42899 8.96605 4.47082 8.97027 4.51301C9.05909 5.40116 9.32573 6.21143 9.62971 7.12336C9.63679 7.14461 9.64305 7.16611 9.64849 7.18784C9.65712 7.22236 9.66687 7.25925 9.67721 7.29838C9.76497 7.63039 9.8955 8.12418 9.74848 8.71228C9.61135 9.26079 9.33891 9.66893 9.14614 9.95771C9.13989 9.96707 9.13372 9.97631 9.12764 9.98543C9.09568 10.0334 9.05906 10.078 9.01832 10.1188L8.19769 10.9394C9.39289 12.863 11.0367 14.5068 12.9603 15.702L13.7809 14.8814C14.1249 14.5374 14.6028 14.1658 15.2856 14.1282C15.7384 14.0294 16.3329 13.9999 16.8683 14.3005C17.7355 14.5871 18.6235 14.8446 19.3962 14.9304C19.4214 14.9332 19.4464 14.9371 19.4712 14.9421C20.1172 15.0712 20.7355 15.3562 21.1996 15.9751C21.2176 15.9991 21.2344 16.0241 21.2499 16.0499C21.5575 16.5625 21.8746 17.1419 21.8746 17.9001V20.9001C21.8746 21.345 21.7412 21.7558 21.6083 22.0377C21.4363 22.5029 21.1265 22.8115 20.9444 22.9928C20.9354 23.0018 20.9267 23.0104 20.9183 23.0188C20.5868 23.3503 20.2472 23.5065 19.8763 23.6302C19.4412 23.7752 19.1219 23.7751 18.8199 23.7751L18.7996 23.7751C18.7715 23.7751 18.7433 23.7737 18.7153 23.771C15.4631 23.4563 12.432 22.3036 9.72827 20.5373C7.2213 18.9688 5.03088 16.7784 3.46237 14.2714C1.6826 11.5466 0.645683 8.41958 0.231807 5.21205C0.227016 5.17491 0.224613 5.13751 0.224613 5.10007C0.224613 5.0949 0.224612 5.08967 0.224611 5.08437C0.224587 4.94515 0.224555 4.761 0.240701 4.58337C0.255464 4.42094 0.28827 4.19795 0.385706 3.97552C0.506937 3.62321 0.66366 3.29859 0.980895 2.98135C0.989242 2.97301 0.997897 2.96431 1.00686 2.95531C1.19598 2.76538 1.52353 2.43643 2.02291 2.26997C2.05225 2.26019 2.08722 2.24732 2.12724 2.23259ZM13.2416 5.82846C13.3364 5.3546 13.7973 5.04728 14.2712 5.14206C15.4476 5.37734 16.5013 5.96437 17.3183 6.78134C18.1353 7.59831 18.7223 8.65203 18.9576 9.82846C19.0524 10.3023 18.7451 10.7633 18.2712 10.8581C17.7973 10.9528 17.3364 10.6455 17.2416 10.1717C17.0769 9.3481 16.6639 8.6018 16.0809 8.01878C15.4979 7.43575 14.7516 7.02279 13.928 6.85807C13.4541 6.7633 13.1468 6.30233 13.2416 5.82846Z" fill="#1D2735"/>
</svg>
