<svg width="24" height="24" viewBox="0 0 24 24" fill="none" xmlns="http://www.w3.org/2000/svg">
<path fill-rule="evenodd" clip-rule="evenodd" d="M4 11.125C4.48325 11.125 4.875 11.5168 4.875 12V20C4.875 20.2984 4.99353 20.5845 5.2045 20.7955C5.41548 21.0065 5.70163 21.125 6 21.125H18C18.2984 21.125 18.5845 21.0065 18.7955 20.7955C19.0065 20.5845 19.125 20.2984 19.125 20V12C19.125 11.5168 19.5168 11.125 20 11.125C20.4832 11.125 20.875 11.5168 20.875 12V20C20.875 20.7625 20.5721 21.4938 20.0329 22.0329C19.4938 22.5721 18.7625 22.875 18 22.875H6C5.2375 22.875 4.50623 22.5721 3.96707 22.0329C3.4279 21.4938 3.125 20.7625 3.125 20V12C3.125 11.5168 3.51675 11.125 4 11.125Z" fill="#1D2735"/>
<path fill-rule="evenodd" clip-rule="evenodd" d="M11.3813 1.38128C11.723 1.03957 12.277 1.03957 12.6187 1.38128L16.6187 5.38128C16.9604 5.72299 16.9604 6.27701 16.6187 6.61872C16.277 6.96043 15.723 6.96043 15.3813 6.61872L12 3.23744L8.61872 6.61872C8.27701 6.96043 7.72299 6.96043 7.38128 6.61872C7.03957 6.27701 7.03957 5.72299 7.38128 5.38128L11.3813 1.38128Z" fill="#1D2735"/>
<path fill-rule="evenodd" clip-rule="evenodd" d="M12 1.125C12.4832 1.125 12.875 1.51675 12.875 2V15C12.875 15.4832 12.4832 15.875 12 15.875C11.5168 15.875 11.125 15.4832 11.125 15V2C11.125 1.51675 11.5168 1.125 12 1.125Z" fill="#1D2735"/>
</svg>
