<svg width="24" height="24" viewBox="0 0 24 24" fill="none" xmlns="http://www.w3.org/2000/svg">
<path fill-rule="evenodd" clip-rule="evenodd" d="M10.979 16.2757C11.3207 16.6174 11.3207 17.1714 10.979 17.5131L6.73636 21.7558C6.39465 22.0975 5.84063 22.0975 5.49892 21.7558L1.25628 17.5131C0.914573 17.1714 0.914573 16.6174 1.25628 16.2757C1.59799 15.934 2.15201 15.934 2.49372 16.2757L6.11764 19.8996L9.74156 16.2757C10.0833 15.934 10.6373 15.934 10.979 16.2757Z" fill="#1D2735"/>
<path fill-rule="evenodd" clip-rule="evenodd" d="M6.11764 22.012C5.63439 22.012 5.24264 21.6203 5.24264 21.137L5.24264 3.23755C5.24264 2.7543 5.63439 2.36255 6.11764 2.36255C6.60089 2.36255 6.99264 2.7543 6.99264 3.23755L6.99264 21.137C6.99264 21.6203 6.60089 22.012 6.11764 22.012Z" fill="#1D2735"/>
<path fill-rule="evenodd" clip-rule="evenodd" d="M22.6665 8.09891C23.0082 7.7572 23.0082 7.20318 22.6665 6.86147L18.4239 2.61883C18.0821 2.27712 17.5281 2.27712 17.1864 2.61883L12.9438 6.86147C12.6021 7.20318 12.6021 7.7572 12.9438 8.09891C13.2855 8.44062 13.8395 8.44062 14.1812 8.09891L17.8051 4.47499L21.4291 8.09891C21.7708 8.44062 22.3248 8.44062 22.6665 8.09891Z" fill="#1D2735"/>
<path fill-rule="evenodd" clip-rule="evenodd" d="M17.8051 2.36255C17.3219 2.36255 16.9301 2.7543 16.9301 3.23755V21.137C16.9301 21.6203 17.3219 22.012 17.8051 22.012C18.2884 22.012 18.6801 21.6203 18.6801 21.137L18.6801 3.23755C18.6801 2.7543 18.2884 2.36255 17.8051 2.36255Z" fill="#1D2735"/>
</svg>
