<svg width="24" height="24" viewBox="0 0 24 24" fill="none" xmlns="http://www.w3.org/2000/svg">
<g clip-path="url(#clip0_317_7603)">
<path d="M21.1 13V4.10001C21.1 2.60001 19.9 1.39999 18.4 1.39999H17.2V0.799988C17.2 0.399988 16.8 0 16.4 0C16 0 15.6 0.399988 15.6 0.799988V1.39999H13.3V0.799988C13.3 0.399988 12.9 0 12.5 0C12.1 0 11.7 0.399988 11.7 0.799988V1.39999H9.4V0.799988C9.4 0.399988 9 0 8.6 0C8.1 0 7.8 0.399988 7.8 0.799988V1.39999H5.5V0.799988C5.5 0.399988 5.1 0 4.7 0C4.2 0 3.9 0.399988 3.9 0.799988V1.39999H2.7C1.2 1.39999 0 2.60001 0 4.10001V18C0 19.2 0.999997 20.2 2.2 20.2H12.5C13.3 22.4 15.5 24 18 24C21.3 24 23.9 21.3 23.9 18.1C24 15.9 22.8 14 21.1 13ZM1.6 4.10001C1.6 3.50001 2.1 3.10001 2.6 3.10001H3.8V3.70001C3.8 4.10001 4.2 4.5 4.6 4.5C5 4.5 5.4 4.10001 5.4 3.70001V3.10001H7.7V3.70001C7.7 4.10001 8.1 4.5 8.5 4.5C8.9 4.5 9.3 4.10001 9.3 3.70001V3.10001H11.6V3.70001C11.6 4.10001 12 4.5 12.4 4.5C12.8 4.5 13.2 4.10001 13.2 3.70001V3.10001H15.5V3.70001C15.5 4.10001 15.9 4.5 16.3 4.5C16.8 4.5 17.1 4.10001 17.1 3.70001V3.10001H18.3C18.9 3.10001 19.3 3.60001 19.3 4.10001V6.10001H1.4V4.10001H1.6ZM12.2 18.6H2.2C1.9 18.6 1.6 18.3 1.6 18V7.70001H19.5V12.4C19.1 12.3 18.6 12.2 18.1 12.2C14.8 12.2 12.2 14.9 12.2 18.1C12.2 18.3 12.2 18.4 12.2 18.6ZM18.1 22.4C15.7 22.4 13.8 20.5 13.8 18.1C13.8 15.7 15.7 13.8 18.1 13.8C20.5 13.8 22.4 15.7 22.4 18.1C22.4 20.4 20.4 22.4 18.1 22.4Z" fill="#1D2735"/>
<path d="M14.0002 9.99994C14.0002 10.3999 13.6002 10.7999 13.2002 10.7999H12.0002C11.6002 10.7999 11.2002 10.3999 11.2002 9.99994C11.2002 9.49994 11.6002 9.19995 12.0002 9.19995H13.2002C13.7002 9.19995 14.0002 9.49994 14.0002 9.99994Z" fill="#1D2735"/>
<path d="M9.90009 9.99994C9.90009 10.3999 9.5001 10.7999 9.1001 10.7999H7.90009C7.50009 10.7999 7.1001 10.3999 7.1001 9.99994C7.1001 9.49994 7.50009 9.19995 7.90009 9.19995H9.1001C9.5001 9.19995 9.90009 9.49994 9.90009 9.99994Z" fill="#1D2735"/>
<path d="M18.0998 9.99994C18.0998 10.3999 17.6998 10.7999 17.2998 10.7999H16.0998C15.6998 10.7999 15.2998 10.3999 15.2998 9.99994C15.2998 9.49994 15.6998 9.19995 16.0998 9.19995H17.2998C17.7998 9.19995 18.0998 9.49994 18.0998 9.99994Z" fill="#1D2735"/>
<path d="M5.8 13.1001C5.8 13.5001 5.4 13.9 5 13.9H3.8C3.4 13.9 3 13.5001 3 13.1001C3 12.6001 3.4 12.3 3.8 12.3H5C5.4 12.3 5.8 12.7001 5.8 13.1001Z" fill="#1D2735"/>
<path d="M9.90009 13.1001C9.90009 13.5001 9.5001 13.9 9.1001 13.9H7.90009C7.50009 13.9 7.1001 13.5001 7.1001 13.1001C7.1001 12.6001 7.50009 12.3 7.90009 12.3H9.1001C9.5001 12.3 9.90009 12.7001 9.90009 13.1001Z" fill="#1D2735"/>
<path d="M14.0002 13.1001C14.0002 13.5001 13.6002 13.9 13.2002 13.9H12.0002C11.6002 13.9 11.2002 13.5001 11.2002 13.1001C11.2002 12.6001 11.6002 12.3 12.0002 12.3H13.2002C13.7002 12.3 14.0002 12.7001 14.0002 13.1001Z" fill="#1D2735"/>
<path d="M5.8 16.1999C5.8 16.5999 5.4 16.9999 5 16.9999H3.8C3.4 16.9999 3 16.5999 3 16.1999C3 15.7999 3.4 15.3999 3.8 15.3999H5C5.4 15.3999 5.8 15.7999 5.8 16.1999Z" fill="#1D2735"/>
<path d="M9.90009 16.1999C9.90009 16.5999 9.5001 16.9999 9.1001 16.9999H7.90009C7.50009 16.9999 7.1001 16.5999 7.1001 16.1999C7.1001 15.7999 7.50009 15.3999 7.90009 15.3999H9.1001C9.5001 15.3999 9.90009 15.7999 9.90009 16.1999Z" fill="#1D2735"/>
<path d="M21.1998 18.1C21.1998 18.5 20.7998 18.9 20.3998 18.9H18.0998C17.5998 18.9 17.2998 18.5 17.2998 18.1V15.8C17.2998 15.3 17.6998 15 18.0998 15C18.4998 15 18.8998 15.4 18.8998 15.8V17.3H20.3998C20.8998 17.3 21.1998 17.6 21.1998 18.1Z" fill="#1D2735"/>
</g>
<defs>
<clipPath id="clip0_317_7603">
<rect width="24" height="24" fill="white"/>
</clipPath>
</defs>
</svg>
