<svg width="24" height="24" viewBox="0 0 24 24" fill="none" xmlns="http://www.w3.org/2000/svg">
<g clip-path="url(#clip0_317_7381)">
<path fill-rule="evenodd" clip-rule="evenodd" d="M12 8.125C9.81675 8.125 8.125 9.81675 8.125 12C8.125 14.1832 9.81675 15.875 12 15.875C14.1832 15.875 15.875 14.1832 15.875 12C15.875 9.81675 14.1832 8.125 12 8.125ZM9.875 12C9.875 10.7832 10.7832 9.875 12 9.875C13.2168 9.875 14.125 10.7832 14.125 12C14.125 13.2168 13.2168 14.125 12 14.125C10.7832 14.125 9.875 13.2168 9.875 12Z" fill="currentColor"/>
<path fill-rule="evenodd" clip-rule="evenodd" d="M0.981288 14.1187C1.54014 14.6776 2.26062 14.975 3 14.975C3.095 14.975 3.22895 15.0043 3.41463 15.128C3.53072 15.2054 3.58915 15.258 3.62101 15.2938C3.64661 15.3226 3.65938 15.3451 3.6699 15.3767C3.71238 15.5041 3.7444 15.623 3.7588 15.7238C3.76852 15.7918 3.76638 15.826 3.76584 15.8347L3.76576 15.8361C3.73876 15.9214 3.72501 16.0104 3.72501 16.1C3.72501 16.1861 3.68588 16.2767 3.58123 16.3813L3.55064 16.4119C3.30534 16.5846 3.16671 16.8132 3.09762 16.9375C3.04931 17.0245 3.00971 17.1092 2.98148 17.1706L2.95711 17.2239C2.93978 17.2618 2.92912 17.2852 2.91737 17.3087C2.89886 17.3457 2.88299 17.384 2.8699 17.4233C2.86012 17.4526 2.84724 17.4876 2.83251 17.5276C2.75469 17.7391 2.625 18.0914 2.625 18.5C2.625 18.9741 2.77642 19.4094 2.91737 19.6913L2.9264 19.7094C3.01776 19.8924 3.15303 20.1633 3.40376 20.4376C3.57738 20.6903 3.81123 20.8322 3.93755 20.9024C4.02451 20.9507 4.10915 20.9903 4.17061 21.0185L4.22391 21.0429C4.26185 21.0602 4.28519 21.0709 4.30869 21.0826C4.34572 21.1011 4.38402 21.117 4.4233 21.1301C4.45263 21.1399 4.48757 21.1527 4.52756 21.1675C4.73899 21.2453 5.0914 21.375 5.5 21.375C5.97409 21.375 6.40941 21.2236 6.69132 21.0826L6.70939 21.0736C6.91041 20.9732 7.21753 20.8199 7.51871 20.5187L7.55047 20.487C7.71241 20.3904 7.88597 20.3274 8.13797 20.243C8.20033 20.2304 8.25073 20.2316 8.30444 20.2398C8.38214 20.2518 8.4634 20.2768 8.62329 20.3301C8.7671 20.378 8.89539 20.4705 8.97195 20.5854C8.99842 20.6251 9.02809 20.6625 9.06065 20.6974C9.06746 20.7107 9.07788 20.7347 9.08869 20.7698C9.11324 20.8496 9.125 20.9379 9.125 21V21.1C9.125 21.8394 9.42244 22.5599 9.98129 23.1187C10.5401 23.6776 11.2606 23.975 12 23.975C12.7394 23.975 13.4599 23.6776 14.0187 23.1187C14.5776 22.5599 14.875 21.8394 14.875 21.1V20.9C14.875 20.805 14.9042 20.6711 15.028 20.4854C15.1054 20.3693 15.158 20.3108 15.1938 20.279C15.2226 20.2534 15.2451 20.2406 15.2767 20.2301C15.4041 20.1876 15.523 20.1556 15.6237 20.1412C15.696 20.1309 15.7302 20.1339 15.7361 20.1342C15.8214 20.1612 15.9104 20.175 16 20.175C16.0861 20.175 16.1767 20.2141 16.2813 20.3187L16.3119 20.3493C16.4846 20.5947 16.7132 20.7333 16.8376 20.8024C16.9245 20.8507 17.0092 20.8903 17.0706 20.9185L17.1239 20.9429C17.1618 20.9602 17.1852 20.9709 17.2087 20.9826C17.2457 21.0011 17.284 21.017 17.3233 21.0301C17.3527 21.0399 17.3876 21.0527 17.4276 21.0675C17.6391 21.1453 17.9914 21.275 18.4 21.275C18.8741 21.275 19.3094 21.1236 19.5913 20.9826L19.6095 20.9735C19.7924 20.8822 20.0633 20.7469 20.3376 20.4962C20.5903 20.3226 20.7322 20.0887 20.8024 19.9624C20.8507 19.8755 20.8903 19.7908 20.9185 19.7294L20.9429 19.6761C20.9602 19.6382 20.9709 19.6148 20.9826 19.5913C21.0011 19.5543 21.017 19.516 21.0301 19.4767C21.0399 19.4473 21.0527 19.4124 21.0675 19.3724C21.1453 19.1609 21.275 18.8086 21.275 18.4C21.275 17.9259 21.1236 17.4906 20.9826 17.2087L20.9735 17.1905C20.8732 16.9896 20.7199 16.6824 20.4187 16.3813L20.3869 16.3495C20.2904 16.1876 20.2274 16.014 20.143 15.762C20.1304 15.6997 20.1316 15.6492 20.1398 15.5955C20.1512 15.5214 20.1745 15.444 20.2229 15.2982C20.2504 15.2877 20.2974 15.2728 20.3716 15.258C20.4837 15.2356 20.5903 15.1914 20.6854 15.128C20.871 15.0043 21.005 14.975 21.1 14.975H21.2C21.9394 14.975 22.6599 14.6776 23.2187 14.1187C23.7776 13.5599 24.075 12.8394 24.075 12.1C24.075 11.3607 23.7776 10.6401 23.2187 10.0813C22.6599 9.52241 21.9393 9.22501 21.2 9.22501H21C20.905 9.22501 20.7711 9.19576 20.5854 9.07196C20.4693 8.99456 20.4108 8.94202 20.379 8.90618C20.3752 8.90197 20.3718 8.89789 20.3685 8.8939C20.3615 8.83598 20.3486 8.77882 20.3301 8.7233C20.2876 8.59587 20.2556 8.47702 20.2412 8.37625C20.2315 8.30824 20.2336 8.27398 20.2342 8.26527L20.2342 8.26394C20.2612 8.17859 20.275 8.08957 20.275 8C20.275 7.91393 20.3141 7.82332 20.4188 7.71868L20.4494 7.68808C20.6947 7.51535 20.8333 7.28679 20.9024 7.16244C20.9507 7.07547 20.9903 6.99083 21.0185 6.92938L21.0429 6.87611C21.0602 6.8382 21.0709 6.81479 21.0826 6.79131C21.1011 6.75427 21.117 6.71597 21.1301 6.67669C21.1399 6.64736 21.1527 6.61242 21.1675 6.57243C21.2453 6.36101 21.375 6.0086 21.375 5.60001C21.375 5.12592 21.2236 4.6906 21.0826 4.40869L21.0736 4.39058C20.9822 4.20762 20.847 3.93668 20.5962 3.66236C20.4226 3.40973 20.1888 3.26779 20.0624 3.19761C19.9755 3.1493 19.8908 3.10971 19.8294 3.08147L19.7762 3.05713C19.7382 3.03979 19.7148 3.02913 19.6913 3.01738C19.6543 2.99886 19.616 2.983 19.5767 2.96991C19.5474 2.96012 19.5124 2.94725 19.4724 2.93252C19.2609 2.85469 18.9086 2.72501 18.5 2.72501C18.0259 2.72501 17.5906 2.87642 17.3087 3.01738L17.2905 3.02644C17.0896 3.12678 16.7824 3.28012 16.4813 3.58128L16.4495 3.61307C16.2876 3.70964 16.114 3.77257 15.862 3.85697C15.7997 3.8696 15.7492 3.86844 15.6955 3.86017C15.6178 3.84822 15.5366 3.8232 15.3767 3.76991C15.3451 3.75939 15.3226 3.74662 15.2938 3.72102C15.258 3.68916 15.2054 3.63072 15.128 3.51464C15.0043 3.32896 14.975 3.195 14.975 3.10001V3C14.975 2.26062 14.6776 1.54014 14.1187 0.981288C13.5599 0.422437 12.8394 0.125 12.1 0.125C11.3606 0.125 10.6401 0.422432 10.0813 0.981288C9.52242 1.54015 9.22501 2.26064 9.22501 3V3.10001C9.22501 3.19498 9.19576 3.32893 9.07196 3.51464C8.99456 3.63073 8.94202 3.68917 8.90618 3.72103C8.90197 3.72477 8.89789 3.72824 8.89391 3.73146C8.83598 3.73854 8.77883 3.7514 8.7233 3.76991C8.59589 3.81238 8.47703 3.8444 8.37627 3.85879C8.30825 3.86851 8.27399 3.86638 8.26528 3.86584L8.26394 3.86576C8.17859 3.83875 8.08958 3.825 8 3.825C7.91391 3.825 7.82335 3.78591 7.71872 3.68128L7.6881 3.65066C7.51537 3.40533 7.28678 3.26669 7.16242 3.19761C7.07545 3.14929 6.99081 3.1097 6.92936 3.08147L6.87615 3.05712C6.83817 3.03979 6.81481 3.02913 6.79131 3.01738C6.75427 2.99886 6.71597 2.983 6.67669 2.96991C6.64735 2.96012 6.61238 2.94725 6.57237 2.93253C6.36095 2.8547 6.0086 2.72501 5.60001 2.72501C5.12592 2.72501 4.6906 2.87642 4.40869 3.01738L4.39051 3.02646C4.20757 3.1178 3.93665 3.25306 3.66237 3.50375C3.40972 3.67738 3.26778 3.91126 3.19761 4.03757C3.14929 4.12454 3.1097 4.20919 3.08147 4.27064L3.05713 4.32384C3.0398 4.36181 3.02913 4.3852 3.01738 4.40869C2.99886 4.44572 2.983 4.48403 2.96991 4.5233C2.96012 4.55265 2.94725 4.58761 2.93253 4.62762C2.8547 4.83905 2.72501 5.19141 2.72501 5.60001C2.72501 6.0741 2.87643 6.50941 3.01738 6.79131L3.02646 6.80949C3.12679 7.01045 3.28013 7.31757 3.58128 7.61872L3.61307 7.65051C3.70964 7.81243 3.77257 7.98597 3.85697 8.23798C3.8696 8.30035 3.86844 8.35076 3.86017 8.40446C3.84822 8.48216 3.8232 8.56342 3.76991 8.7233C3.72197 8.86711 3.62948 8.9954 3.51464 9.07196C3.47493 9.09843 3.43747 9.1281 3.40262 9.16066C3.38929 9.16748 3.36531 9.17789 3.33017 9.1887C3.25041 9.21324 3.16212 9.22501 3.10001 9.22501H3C2.26064 9.22501 1.54015 9.52242 0.981288 10.0813C0.422432 10.6401 0.125 11.3606 0.125 12.1C0.125 12.8394 0.422437 13.5599 0.981288 14.1187ZM11.3187 2.21872C11.5599 1.97758 11.8394 1.875 12.1 1.875C12.3606 1.875 12.6401 1.97758 12.8813 2.21872C13.1224 2.45987 13.225 2.73938 13.225 3V3.10001C13.225 3.60501 13.3957 4.07104 13.672 4.48536C13.9235 4.86275 14.2612 5.24274 14.8233 5.4301L14.8514 5.43949C15.1557 5.54132 15.6632 5.71113 16.3122 5.54887C16.334 5.54344 16.3555 5.53718 16.3767 5.53009L16.4025 5.52151C16.6921 5.42511 17.087 5.29363 17.4854 5.02805C17.5333 4.99609 17.578 4.95947 17.6187 4.91872L17.7187 4.81872C17.8084 4.72909 17.8916 4.68246 18.0913 4.58263C18.1421 4.55722 18.2133 4.52834 18.2927 4.50667C18.3728 4.48483 18.4441 4.47501 18.5 4.47501C18.5435 4.47501 18.5818 4.48056 18.6486 4.5006C18.6876 4.51232 18.7317 4.5275 18.7963 4.55059L18.8261 4.56123C18.8672 4.57598 18.9156 4.59332 18.9674 4.61116C18.9834 4.61873 18.9987 4.62582 19.0128 4.63233L19.0988 4.67166C19.1412 4.69115 19.1713 4.70559 19.1946 4.71775C19.2209 4.7535 19.2498 4.78726 19.2813 4.81872C19.3709 4.90835 19.4175 4.99166 19.5174 5.19132C19.5428 5.24213 19.5717 5.3133 19.5933 5.39273C19.6152 5.47284 19.625 5.54415 19.625 5.60001C19.625 5.64347 19.6194 5.68176 19.5994 5.74857C19.5877 5.78761 19.5725 5.83166 19.5494 5.89633L19.5387 5.92613C19.524 5.96726 19.5067 6.0156 19.4889 6.0674C19.4813 6.08339 19.4742 6.09866 19.4677 6.11277L19.4284 6.19874C19.4089 6.24117 19.3944 6.27129 19.3822 6.29462C19.3465 6.32087 19.3127 6.34985 19.2812 6.38133L19.1813 6.48129C18.9044 6.75814 18.57 7.22309 18.5291 7.86825C18.464 8.14955 18.4795 8.41904 18.5088 8.62375C18.5356 8.81118 18.5807 8.98838 18.6258 9.13813C18.6294 9.21926 18.6442 9.29955 18.6699 9.37671C18.8573 9.93882 19.2373 10.2765 19.6146 10.528C20.0289 10.8042 20.495 10.975 21 10.975H21.2C21.4606 10.975 21.7402 11.0776 21.9813 11.3187C22.2224 11.5598 22.325 11.8394 22.325 12.1C22.325 12.3606 22.2224 12.6401 21.9813 12.8813C21.7401 13.1224 21.4606 13.225 21.2 13.225H21.1C20.6535 13.225 20.2375 13.3585 19.8607 13.5803C19.5893 13.6506 19.3288 13.7614 19.1034 13.9417C18.8175 14.1705 18.66 14.4529 18.5699 14.7233L18.5605 14.7514C18.4587 15.0557 18.2889 15.5632 18.4511 16.2122C18.4566 16.2339 18.4628 16.2555 18.4699 16.2767L18.4785 16.3025C18.5749 16.5921 18.7064 16.987 18.972 17.3854C19.0039 17.4333 19.0405 17.478 19.0813 17.5187L19.1813 17.6187C19.2709 17.7083 19.3175 17.7916 19.4174 17.9913C19.4428 18.0421 19.4717 18.1133 19.4933 18.1927C19.5152 18.2728 19.525 18.3441 19.525 18.4C19.525 18.4435 19.5194 18.4818 19.4994 18.5486C19.4877 18.5876 19.4725 18.6317 19.4494 18.6963L19.4388 18.7261C19.424 18.7672 19.4067 18.8156 19.3888 18.8674C19.3813 18.8834 19.3742 18.8987 19.3677 18.9128L19.3283 18.9988C19.3088 19.0412 19.2944 19.0713 19.2822 19.0946C19.2465 19.1209 19.2127 19.1498 19.1813 19.1813C19.0917 19.2709 19.0084 19.3175 18.8087 19.4174C18.7579 19.4428 18.6867 19.4717 18.6073 19.4933C18.5272 19.5152 18.4558 19.525 18.4 19.525C18.3565 19.525 18.3182 19.5194 18.2514 19.4994C18.2124 19.4877 18.1683 19.4725 18.1037 19.4494L18.0738 19.4387C18.0328 19.424 17.9843 19.4066 17.9326 19.3888C17.9166 19.3813 17.9013 19.3742 17.8872 19.3677L17.8012 19.3283C17.7588 19.3088 17.7287 19.2944 17.7054 19.2822C17.6791 19.2465 17.6502 19.2127 17.6187 19.1813L17.5187 19.0813C17.2418 18.8044 16.7769 18.47 16.1318 18.4291C15.8505 18.364 15.581 18.3795 15.3763 18.4088C15.127 18.4444 14.8959 18.5124 14.7233 18.5699C14.1612 18.7573 13.8235 19.1373 13.572 19.5146C13.2958 19.9289 13.125 20.395 13.125 20.9V21.1C13.125 21.3606 13.0224 21.6401 12.7813 21.8813C12.5401 22.1224 12.2606 22.225 12 22.225C11.7394 22.225 11.4599 22.1224 11.2187 21.8813C10.9776 21.6401 10.875 21.3606 10.875 21.1V21C10.875 20.7621 10.8368 20.5004 10.7613 20.2552C10.6964 20.0443 10.5834 19.7781 10.3842 19.5512C10.0628 19.1025 9.61267 18.8152 9.17669 18.6699L9.14856 18.6605C8.84427 18.5587 8.3368 18.3889 7.68778 18.5511C7.66605 18.5566 7.64454 18.5628 7.62329 18.5699L7.59763 18.5784C7.308 18.6749 6.91305 18.8064 6.51464 19.072C6.46671 19.1039 6.42206 19.1405 6.38133 19.1812L6.28128 19.2813C6.19163 19.3709 6.10832 19.4176 5.90869 19.5174C5.85787 19.5428 5.7867 19.5717 5.70728 19.5933C5.62717 19.6152 5.55585 19.625 5.5 19.625C5.45654 19.625 5.41824 19.6194 5.35142 19.5994C5.31238 19.5877 5.26833 19.5725 5.20366 19.5494L5.17389 19.5388C5.13282 19.524 5.08427 19.5066 5.03258 19.4888C5.0166 19.4813 5.00134 19.4742 4.98722 19.4677L4.90126 19.4284C4.85884 19.4089 4.82872 19.3944 4.80539 19.3822C4.77915 19.3465 4.75018 19.3127 4.71872 19.2813C4.62908 19.1916 4.58244 19.1083 4.48262 18.9087C4.45721 18.8579 4.42833 18.7867 4.40667 18.7073C4.38482 18.6272 4.375 18.5559 4.375 18.5C4.375 18.4565 4.38055 18.4182 4.4006 18.3514C4.41231 18.3124 4.42749 18.2683 4.45059 18.2037L4.46123 18.1739C4.47597 18.1328 4.49331 18.0844 4.51115 18.0326L4.53232 17.9872L4.57165 17.9013C4.59114 17.8588 4.60558 17.8287 4.61774 17.8054C4.65351 17.7791 4.6873 17.7502 4.71877 17.7187L4.81872 17.6187C5.09557 17.3419 5.43004 16.8769 5.47086 16.2318C5.53596 15.9505 5.52045 15.681 5.49121 15.4763C5.4556 15.227 5.38762 14.9959 5.3301 14.8233C5.14273 14.2612 4.76274 13.9235 4.38536 13.672C3.97104 13.3957 3.505 13.225 3 13.225C2.73938 13.225 2.45987 13.1224 2.21872 12.8813C1.97758 12.6401 1.875 12.3606 1.875 12.1C1.875 11.8394 1.97758 11.5599 2.21872 11.3187C2.45986 11.0776 2.73936 10.975 3 10.975H3.10001C3.3379 10.975 3.5996 10.9368 3.84483 10.8613C4.0557 10.7964 4.3219 10.6834 4.54883 10.4842C4.99748 10.1628 5.28478 9.71267 5.4301 9.2767L5.43949 9.24861C5.54132 8.94429 5.71113 8.43682 5.54887 7.78778C5.54344 7.76606 5.53718 7.74455 5.53009 7.7233L5.52151 7.69753C5.4251 7.40794 5.29363 7.01302 5.02805 6.61464C4.99609 6.5667 4.95947 6.52203 4.91872 6.48129L4.81872 6.38128C4.72909 6.29166 4.68248 6.20838 4.58263 6.00868C4.55722 5.95786 4.52833 5.88669 4.50667 5.80727C4.48483 5.72717 4.47501 5.65586 4.47501 5.60001C4.47501 5.55654 4.48056 5.51825 4.5006 5.45143C4.51232 5.41238 4.5275 5.36833 4.55059 5.30367L4.56123 5.27395C4.57597 5.23282 4.59333 5.18439 4.61116 5.13258L4.63233 5.08721L4.67166 5.00124C4.69115 4.95882 4.7056 4.9287 4.71776 4.90537C4.7535 4.87913 4.78726 4.85017 4.81872 4.81872C4.90834 4.72909 4.99162 4.68248 5.19132 4.58263C5.24213 4.55722 5.3133 4.52834 5.39273 4.50667C5.47284 4.48483 5.54415 4.47501 5.60001 4.47501C5.64347 4.47501 5.68176 4.48056 5.74857 4.5006C5.78761 4.51231 5.83166 4.52749 5.89633 4.55059L5.92606 4.56124C5.96718 4.57597 6.01562 4.59334 6.06741 4.61116C6.0834 4.61873 6.09867 4.62582 6.11278 4.63233L6.19875 4.67166C6.24118 4.69115 6.2713 4.7056 6.29463 4.71776C6.32087 4.7535 6.34983 4.78726 6.38128 4.81872L6.48129 4.91872C6.75816 5.19559 7.22311 5.53004 7.86825 5.57085C8.14954 5.63595 8.41902 5.62045 8.62373 5.59121C8.81116 5.56444 8.98836 5.51935 9.13812 5.47418C9.21925 5.47064 9.29955 5.45582 9.37671 5.4301C9.93882 5.24273 10.2765 4.86273 10.528 4.48536C10.8042 4.07107 10.975 3.60503 10.975 3.10001V3C10.975 2.73936 11.0776 2.45986 11.3187 2.21872Z" fill="currentColor"/>
</g>
<defs>
<clipPath id="clip0_317_7381">
<rect width="24" height="24" fill="white"/>
</clipPath>
</defs>
</svg>
